<svg width="350" height="350" viewBox="0 0 350 350" fill="none" xmlns="http://www.w3.org/2000/svg">
<path d="M85.3308 130.489H60.7752V262.226L85.3308 242.181V130.489Z" fill="#6015FF"/>
<path d="M216.498 177.891C210.551 174.377 205.003 170.223 199.981 165.514C196.495 162.241 193.28 158.713 190.35 154.958C190.919 159.396 191.203 164.034 191.175 168.871C191.175 220.243 162.665 249.592 110.169 249.592C102.288 249.592 94.8188 249.393 88.9433 248.696L65.7683 267.617C77.0784 268.713 90.1525 269.353 105.361 269.353C142.335 269.353 171.685 259.75 189.468 241.981C205.33 226.374 214.648 204.466 216.484 177.891H216.498Z" fill="#6015FF"/>
<path d="M249.902 160.135C228.392 151.813 216.754 144.415 213.24 132.237C209.072 123.701 203.951 115.734 197.947 108.479C196.382 106.587 194.732 104.766 193.039 102.959C190.976 100.768 188.828 98.6481 186.594 96.6138C153.887 68.7441 107.466 75.4305 95.6727 77.1377C91.419 77.7495 87.9193 78.475 85.4865 79.0298C77.2494 84.507 69.0123 89.9985 60.7752 95.4757H107.552V95.5895C109.657 95.5183 111.82 95.4757 114.124 95.4757C151.768 95.4757 175.469 110.47 185.556 135.808C187.291 139.307 189.24 142.665 191.388 145.88C195.073 151.386 199.341 156.45 204.192 161.003C208.716 165.242 213.696 168.984 219.016 172.199C224.565 175.13 230.739 177.747 237.482 180.137C263.161 190.011 273.333 200.168 273.333 217.951C273.333 224.254 271.754 229.916 268.738 234.682C260.003 248.467 241.025 249.89 233.542 250.402C218.646 251.426 206.71 246.76 199.868 243.303C194.348 248.396 188.828 253.489 183.308 258.597C193.466 265.368 213.511 270.732 231.849 270.732C276.719 270.732 298.457 245.337 298.457 215.974C298.457 186.611 282.082 172.512 249.916 160.092L249.902 160.135Z" fill="#6015FF"/>
<path d="M212.586 118.352C214.891 106.729 225.291 94.9353 247.925 94.9353C265.139 94.9353 277.843 100.583 284.046 103.969L290.818 83.924C282.353 79.1297 268.24 74.6057 248.764 74.6057C225.262 74.6057 206.782 83.5115 196.439 97.6099C198.602 99.8577 200.693 102.162 202.671 104.552C206.284 108.906 209.585 113.515 212.572 118.338L212.586 118.352Z" fill="#6015FF"/>
<path d="M175 350C78.5017 350 0 271.498 0 175C0 78.5017 78.5017 0 175 0C271.498 0 350 78.5017 350 175C350 271.498 271.498 350 175 350ZM175 15.2223C86.8954 15.2223 15.2223 86.8954 15.2223 175C15.2223 263.105 86.8954 334.778 175 334.778C263.105 334.778 334.778 263.105 334.778 175C334.778 86.8954 263.105 15.2223 175 15.2223Z" fill="#6015FF"/>
</svg>
