<?xml version="1.0" standalone="no"?>
<!DOCTYPE svg PUBLIC "-//W3C//DTD SVG 20010904//EN"
 "http://www.w3.org/TR/2001/REC-SVG-20010904/DTD/svg10.dtd">
<svg version="1.0" xmlns="http://www.w3.org/2000/svg"
 width="700.000000pt" height="700.000000pt" viewBox="0 0 700.000000 700.000000"
 preserveAspectRatio="xMidYMid meet">
<metadata>
Created by potrace 1.14, written by Peter Selinger 2001-2017
</metadata>
<g transform="translate(0.000000,700.000000) scale(0.100000,-0.100000)"
fill="#000000" stroke="none">
<path d="M3225 6990 c-830 -74 -1566 -412 -2156 -991 -523 -512 -874 -1190
-994 -1913 -34 -209 -45 -349 -45 -576 0 -227 11 -367 45 -576 241 -1458 1392
-2617 2845 -2863 211 -36 332 -45 580 -45 327 0 559 28 860 104 1123 285 2043
1138 2423 2247 141 410 194 762 184 1216 -9 423 -73 760 -218 1152 -57 154
-212 466 -307 617 -558 887 -1463 1471 -2493 1608 -177 24 -563 34 -724 20z
m640 -315 c1330 -152 2435 -1150 2729 -2467 96 -429 100 -925 11 -1348 -192
-916 -776 -1701 -1600 -2153 -879 -482 -1965 -508 -2878 -68 -828 400 -1458
1164 -1692 2053 -128 486 -138 1029 -29 1514 181 808 667 1512 1359 1969 619
409 1357 584 2100 500z"/>
<path d="M4750 5499 c-213 -27 -407 -97 -575 -208 -75 -49 -245 -212 -245
-234 0 -7 12 -24 26 -38 46 -42 149 -171 219 -273 l69 -99 17 49 c49 147 147
257 293 331 67 34 213 69 321 77 220 17 530 -45 729 -146 32 -16 59 -28 60
-26 2 2 30 84 64 183 33 99 63 187 67 196 12 32 -223 123 -420 163 -175 35
-460 46 -625 25z"/>
<path d="M2145 5489 c-55 -5 -170 -20 -255 -35 l-155 -25 -243 -161 c-133 -89
-241 -162 -239 -164 1 -2 241 -4 532 -4 550 -1 743 -9 905 -36 230 -39 471
-137 631 -258 160 -121 270 -259 366 -463 133 -283 311 -505 544 -678 122 -91
243 -153 466 -241 313 -122 479 -218 595 -343 106 -115 147 -217 155 -391 8
-187 -36 -324 -143 -439 -132 -143 -316 -215 -610 -241 -219 -19 -434 18 -645
112 l-55 25 -162 -149 c-89 -83 -159 -154 -156 -159 20 -33 276 -134 434 -172
516 -125 1035 -65 1380 158 102 66 253 221 313 321 104 174 153 378 144 599
-20 513 -272 790 -967 1065 -185 73 -351 153 -440 211 -85 56 -210 182 -237
239 -129 275 -198 389 -340 565 -298 370 -662 572 -1173 650 -126 19 -501 28
-645 14z"/>
<path d="M1230 3090 c0 -720 3 -1310 8 -1310 4 0 113 87 242 193 l235 193 3
1117 2 1117 -245 0 -245 0 0 -1310z"/>
<path d="M3817 3701 c17 -661 -190 -1142 -610 -1418 -306 -202 -713 -285
-1237 -255 -96 6 -179 8 -186 4 -6 -4 -110 -88 -230 -187 l-219 -180 70 -7
c273 -27 772 -36 1006 -18 637 50 1135 258 1438 601 190 214 316 452 396 746
34 122 75 361 75 433 0 32 -6 38 -63 75 -132 85 -263 198 -377 326 l-67 76 4
-196z"/>
</g>
</svg>
