<svg xmlns="http://www.w3.org/2000/svg" width="100" height="100" fill="none"><g clip-path="url(#a)"><path fill="url(#b)" d="M68.71 26.715a2.641 2.641 0 0 0-3.734.12L54.672 37.817l-1.71-.128-10.184-10.856a2.649 2.649 0 0 0-3.61-.228 2.641 2.641 0 0 0-.352 3.719l9.143 11.053-.009 11.066-15.183-.713a2.2 2.2 0 0 0-.326 4.388s9.329.957 13.974 1.412c3.734.313 6.912 2.219 7.195 7.434.086 3.119.2 6.894.2 6.894a2.2 2.2 0 0 0 4.4 0s.522-15.789.522-16.73c0 0 .43-12.477.342-12.88l9.864-11.924a2.65 2.65 0 0 0-.228-3.61Z"/><path fill="url(#c)" d="M49.276 58.928a4.762 4.762 0 0 0-4.46.444 4.762 4.762 0 0 0-2.084 3.967 4.766 4.766 0 0 0 2.087 3.871 4.725 4.725 0 0 0 1.73.716h.007a4.761 4.761 0 0 0 4.241-1.295 4.765 4.765 0 0 0 1.284-4.314 4.766 4.766 0 0 0-2.805-3.389Z"/></g><circle cx="50" cy="50" r="49" stroke="url(#d)" stroke-width="2"/><defs><linearGradient id="b" x1="30.46" x2="69.541" y1="50.002" y2="50.002" gradientUnits="userSpaceOnUse"><stop stop-color="#E4F0FF"/><stop offset=".35" stop-color="#E2EEFC"/><stop offset=".5" stop-color="#DBE7F5"/><stop offset=".61" stop-color="#D1DBE9"/><stop offset=".7" stop-color="#C1CBD7"/><stop offset=".78" stop-color="#ADB5C0"/><stop offset=".85" stop-color="#949AA4"/><stop offset=".92" stop-color="#767A82"/><stop offset=".98" stop-color="#55575C"/><stop offset="1" stop-color="#48494D"/></linearGradient><linearGradient id="c" x1="42.731" x2="52.18" y1="63.291" y2="63.291" gradientUnits="userSpaceOnUse"><stop stop-color="#E4F0FF"/><stop offset=".35" stop-color="#E2EEFC"/><stop offset=".5" stop-color="#DBE7F5"/><stop offset=".61" stop-color="#D1DBE9"/><stop offset=".7" stop-color="#C1CBD7"/><stop offset=".78" stop-color="#ADB5C0"/><stop offset=".85" stop-color="#949AA4"/><stop offset=".92" stop-color="#767A82"/><stop offset=".98" stop-color="#55575C"/><stop offset="1" stop-color="#48494D"/></linearGradient><linearGradient id="d" x1="0" x2="100" y1="50.004" y2="50.004" gradientUnits="userSpaceOnUse"><stop stop-color="#E4F0FF"/><stop offset=".35" stop-color="#E2EEFC"/><stop offset=".5" stop-color="#DBE7F5"/><stop offset=".61" stop-color="#D1DBE9"/><stop offset=".7" stop-color="#C1CBD7"/><stop offset=".78" stop-color="#ADB5C0"/><stop offset=".85" stop-color="#949AA4"/><stop offset=".92" stop-color="#767A82"/><stop offset=".98" stop-color="#55575C"/><stop offset="1" stop-color="#48494D"/></linearGradient><clipPath id="a"><path fill="#fff" d="M26 26h48v48H26z"/></clipPath></defs></svg>