<svg xmlns="http://www.w3.org/2000/svg" width="60" height="60" fill="none"><path fill="url(#a)" d="M30 60C13.456 60 0 46.543 0 30S13.457 0 30 0C46.54 0 59.997 13.457 59.997 30S46.541 60 30 60Zm0-57.39C14.895 2.61 2.61 14.896 2.61 30c0 15.104 12.286 27.39 27.39 27.39 15.102 0 27.389-12.286 27.389-27.39 0-15.104-12.287-27.39-27.39-27.39Z"/><path fill="#fff" d="M28.94 46.077a1.5 1.5 0 0 0 2.12 0l9.547-9.546a1.5 1.5 0 1 0-2.122-2.121L30 42.895l-8.485-8.486a1.5 1.5 0 1 0-2.122 2.122l9.546 9.546ZM28.5 14v31.016h3V14h-3Z"/><path fill="url(#b)" d="M28.94 46.077a1.5 1.5 0 0 0 2.12 0l9.547-9.546a1.5 1.5 0 1 0-2.122-2.121L30 42.895l-8.485-8.486a1.5 1.5 0 1 0-2.122 2.122l9.546 9.546ZM28.5 14v31.016h3V14h-3Z"/><defs><linearGradient id="a" x1="0" x2="59.998" y1="30.002" y2="30.002" gradientUnits="userSpaceOnUse"><stop stop-color="#E4F0FF"/><stop offset=".35" stop-color="#E2EEFC"/><stop offset=".5" stop-color="#DBE7F5"/><stop offset=".61" stop-color="#D1DBE9"/><stop offset=".7" stop-color="#C1CBD7"/><stop offset=".78" stop-color="#ADB5C0"/><stop offset=".85" stop-color="#949AA4"/><stop offset=".92" stop-color="#767A82"/><stop offset=".98" stop-color="#55575C"/><stop offset="1" stop-color="#48494D"/></linearGradient><linearGradient id="b" x1="29.5" x2="29.5" y1="-17.506" y2="45.014" gradientUnits="userSpaceOnUse"><stop stop-color="#E4F0FF"/><stop offset=".35" stop-color="#E2EEFC"/><stop offset=".5" stop-color="#DBE7F5"/><stop offset=".61" stop-color="#D1DBE9"/><stop offset=".7" stop-color="#C1CBD7"/><stop offset=".78" stop-color="#ADB5C0"/><stop offset=".85" stop-color="#949AA4"/><stop offset=".92" stop-color="#767A82"/><stop offset=".98" stop-color="#55575C"/><stop offset="1" stop-color="#48494D"/></linearGradient></defs></svg>