<svg width="36" height="36" viewBox="0 0 36 36" fill="none" xmlns="http://www.w3.org/2000/svg">
<g clip-path="url(#clip0_271_220)">
<path d="M10.5519 30.4138L9.31055 32.2759H26.6899L25.4485 30.4138H10.5519Z" fill="#8A8A8A"/>
<path d="M10.5519 30.4138L9.31055 32.2759H26.6899L25.4485 30.4138H10.5519Z" fill="url(#paint0_linear_271_220)"/>
<path d="M27.3107 33.5172H8.69003C8.34723 33.5172 8.06934 33.7951 8.06934 34.1379V35.3793C8.06934 35.7221 8.34723 36 8.69003 36H27.3107C27.6535 36 27.9314 35.7221 27.9314 35.3793V34.1379C27.9314 33.7951 27.6535 33.5172 27.3107 33.5172Z" fill="#8A8A8A"/>
<path d="M27.3107 33.5172H8.69003C8.34723 33.5172 8.06934 33.7951 8.06934 34.1379V35.3793C8.06934 35.7221 8.34723 36 8.69003 36H27.3107C27.6535 36 27.9314 35.7221 27.9314 35.3793V34.1379C27.9314 33.7951 27.6535 33.5172 27.3107 33.5172Z" fill="url(#paint1_linear_271_220)"/>
<path d="M35.7983 12.6229C35.1963 12.2654 34.3943 12.4417 33.3261 13.2542C33.0456 13.4652 32.7793 13.6949 32.5298 13.9432C32.6545 13.5062 32.7706 13.0692 32.8749 12.6323C33.6328 11.6373 34.0734 10.4371 34.1392 9.18805C34.3652 7.01502 33.8537 5.16908 33.2287 4.8755C32.5906 5.16288 32.019 6.8344 31.708 8.81626C31.4978 9.92606 31.5016 11.0658 31.7192 12.1742C31.7148 12.1872 31.7055 12.1972 31.7024 12.2114C31.5962 12.6582 31.4793 13.1023 31.3517 13.5434C31.2709 13.2074 31.1565 12.8803 31.0103 12.5671C30.4455 11.3629 29.7441 10.9266 29.0757 10.9129C28.9813 10.9221 28.8918 10.9596 28.8192 11.0206C28.7465 11.0815 28.694 11.163 28.6685 11.2543C28.3738 12.2391 28.457 13.2983 28.9019 14.2249C29.0291 14.6312 29.2368 15.0076 29.5127 15.3318C29.7886 15.656 30.1269 15.9213 30.5076 16.1118C30.1992 16.9399 29.8542 17.7538 29.4735 18.5512C29.4372 18.1503 29.3538 17.7551 29.2252 17.3737C28.7783 16.0516 28.0757 15.4663 27.3551 15.3062C27.2585 15.2912 27.1597 15.3071 27.0727 15.3517C26.9858 15.3963 26.9151 15.4673 26.871 15.5545C26.6508 16.0234 26.5262 16.5315 26.5046 17.0491C26.483 17.5667 26.5647 18.0835 26.745 18.5692C26.9351 19.4987 27.4851 20.3153 28.275 20.8409C27.8364 21.6001 27.366 22.3404 26.8648 23.0598C26.8868 22.6079 26.8491 22.155 26.7524 21.7129C26.4421 20.2872 25.7655 19.5529 25.0194 19.2395C24.925 19.2028 24.8213 19.1974 24.7236 19.2243C24.6259 19.2511 24.5394 19.3087 24.477 19.3885C23.9773 20.0445 23.7383 21.0023 23.9835 22.4087C24.0855 23.4358 24.579 24.3842 25.3614 25.0572C24.9419 25.5594 24.3249 26.2514 23.9308 26.6896H22.9656V26.4352C22.9656 25.9765 22.8123 25.5314 22.5311 25.1689C22.2452 24.8073 21.8482 24.5499 21.4014 24.4365C21.1128 24.3651 20.8432 24.2314 20.6116 24.0449C20.38 23.8583 20.192 23.6234 20.0608 23.3565L19.8621 22.9655V19.8621C19.7504 19.9365 19.6325 20.0048 19.5145 20.0731C19.0549 20.3414 18.5323 20.4828 18.0001 20.4828C17.4679 20.4828 16.9452 20.3414 16.4856 20.0731C16.3676 20.0048 16.2497 19.9365 16.138 19.8621V22.9655L15.9394 23.3565C15.8081 23.6234 15.6201 23.8583 15.3885 24.0449C15.1569 24.2314 14.8874 24.3651 14.5987 24.4365C14.1526 24.5478 13.7564 24.8049 13.4731 25.167C13.1897 25.5291 13.0354 25.9754 13.0345 26.4352V26.6896H12.0694C11.6746 26.2514 11.0576 25.5594 10.6387 25.0572C11.4212 24.3842 11.9146 23.4358 12.0166 22.4087C12.2618 21.0023 12.0228 20.0452 11.5232 19.3891C11.4607 19.3093 11.3743 19.2517 11.2766 19.2249C11.1789 19.1981 11.0751 19.2034 10.9807 19.2401C10.234 19.5529 9.55868 20.2872 9.24772 21.7129C9.15128 22.155 9.11371 22.6079 9.13599 23.0598C8.63497 22.3402 8.16428 21.5999 7.72517 20.8409C8.51504 20.3153 9.06503 19.4987 9.25517 18.5692C9.43536 18.0834 9.51697 17.5667 9.49523 17.0491C9.47349 16.5315 9.34884 16.0234 9.12855 15.5545C9.08447 15.4672 9.01389 15.3961 8.92692 15.3514C8.83995 15.3066 8.74105 15.2906 8.64441 15.3056C7.92441 15.4657 7.22179 16.051 6.77427 17.3725C6.64558 17.7543 6.56225 18.1499 6.526 18.5512C6.14575 17.7532 5.80073 16.9389 5.49193 16.1106C5.87263 15.9202 6.21107 15.655 6.48706 15.3309C6.76305 15.0069 6.97092 14.6305 7.09827 14.2243C7.54331 13.2976 7.62586 12.2381 7.33165 11.2537C7.30612 11.1623 7.2535 11.0807 7.1807 11.0198C7.10791 10.9588 7.01836 10.9214 6.92386 10.9123C6.25599 10.926 5.55462 11.3623 4.98917 12.5665C4.84301 12.8797 4.72864 13.2068 4.64779 13.5428C4.52046 13.1017 4.40374 12.6575 4.29772 12.2108C4.29462 12.1972 4.28531 12.1872 4.28096 12.1736C4.4982 11.065 4.50193 9.92543 4.29213 8.81564C3.98055 6.8344 3.40951 5.16226 2.77144 4.87488C2.14579 5.16846 1.63558 7.0144 1.86089 9.18743C1.92675 10.4364 2.36734 11.6367 3.12524 12.6316C3.22951 13.0686 3.34558 13.5056 3.47034 13.9425C3.22082 13.6943 2.95517 13.4646 2.674 13.2536C1.60641 12.4411 0.803857 12.2648 0.201788 12.6223C0.0279952 12.7794 -0.0452462 13.0183 0.0106158 13.2461C0.101772 13.8477 0.319321 14.4231 0.648937 14.9344C0.978553 15.4458 1.41276 15.8816 1.92296 16.213C2.92848 16.8666 3.76144 16.8889 4.34986 16.5997C4.67429 17.4658 5.03713 18.317 5.43731 19.1507C5.09872 18.9251 4.74157 18.7287 4.36972 18.5636C3.10041 17.9901 2.20041 17.9938 1.6002 18.4798C1.43882 18.6598 1.39413 18.9161 1.48537 19.1402C1.68094 19.7243 2.00658 20.2564 2.43773 20.6964C2.86888 21.1364 3.39429 21.4727 3.97434 21.6801C4.40145 21.8877 4.87514 21.9809 5.34907 21.9505C5.823 21.9201 6.28093 21.7673 6.67806 21.5069C7.13878 22.3014 7.63287 23.0761 8.15903 23.8289C7.73538 23.6483 7.29507 23.5097 6.84441 23.4149C5.41993 23.1014 4.45662 23.2945 3.88124 23.9089C3.80902 24.008 3.76732 24.1259 3.76125 24.2483C3.75519 24.3707 3.78503 24.4922 3.8471 24.5979C4.14466 25.1524 4.57039 25.6277 5.08884 25.9843C5.60729 26.3409 6.20345 26.5685 6.82765 26.6481C7.33335 26.7701 7.86161 26.7631 8.36388 26.6276C8.86616 26.4921 9.32632 26.2326 9.70206 25.8728C9.9162 26.1285 10.1694 26.4209 10.4283 26.7145C10.2893 26.741 10.1638 26.8149 10.0732 26.9235C9.98252 27.0322 9.93232 27.1688 9.9311 27.3103V28.5517C9.9311 28.7163 9.99649 28.8742 10.1129 28.9906C10.2293 29.107 10.3872 29.1724 10.5518 29.1724H25.4483C25.613 29.1724 25.7708 29.107 25.8872 28.9906C26.0036 28.8742 26.069 28.7163 26.069 28.5517V27.3103C26.0678 27.1688 26.0176 27.0322 25.927 26.9235C25.8363 26.8149 25.7108 26.741 25.5719 26.7145C25.8307 26.4209 26.0839 26.1279 26.2981 25.8728C26.6738 26.2326 27.134 26.4921 27.6362 26.6276C28.1385 26.7631 28.6668 26.7701 29.1725 26.6481C29.7966 26.5684 30.3926 26.3408 30.9109 25.9842C31.4293 25.6276 31.8549 25.1523 32.1524 24.5979C32.2146 24.4923 32.2445 24.3708 32.2386 24.2484C32.2326 24.126 32.191 24.008 32.1189 23.9089C31.5435 23.2945 30.5796 23.1014 29.1563 23.4149C28.7051 23.5092 28.2644 23.6483 27.8405 23.8295C28.3672 23.0766 28.8617 22.3017 29.3227 21.5069C29.7198 21.7673 30.1777 21.9201 30.6517 21.9505C31.1256 21.9809 31.5993 21.8877 32.0264 21.6801C32.6065 21.4727 33.1319 21.1364 33.563 20.6964C33.9942 20.2564 34.3198 19.7243 34.5154 19.1402C34.6066 18.9161 34.5619 18.6598 34.4005 18.4798C33.8003 17.9938 32.9003 17.9901 31.631 18.5636C31.2586 18.7287 30.9017 18.9254 30.5634 19.1514C30.9633 18.3175 31.326 17.4663 31.6503 16.6003C32.2387 16.8896 33.0723 16.8672 34.0772 16.213C34.5874 15.8816 35.0216 15.4458 35.3512 14.9344C35.6808 14.4231 35.8984 13.8477 35.9895 13.2461C36.0167 13.1347 36.0134 13.0179 35.9797 12.9082C35.946 12.7985 35.8834 12.7 35.7983 12.6229Z" fill="#8A8A8A"/>
<path d="M35.7983 12.6229C35.1963 12.2654 34.3943 12.4417 33.3261 13.2542C33.0456 13.4652 32.7793 13.6949 32.5298 13.9432C32.6545 13.5062 32.7706 13.0692 32.8749 12.6323C33.6328 11.6373 34.0734 10.4371 34.1392 9.18805C34.3652 7.01502 33.8537 5.16908 33.2287 4.8755C32.5906 5.16288 32.019 6.8344 31.708 8.81626C31.4978 9.92606 31.5016 11.0658 31.7192 12.1742C31.7148 12.1872 31.7055 12.1972 31.7024 12.2114C31.5962 12.6582 31.4793 13.1023 31.3517 13.5434C31.2709 13.2074 31.1565 12.8803 31.0103 12.5671C30.4455 11.3629 29.7441 10.9266 29.0757 10.9129C28.9813 10.9221 28.8918 10.9596 28.8192 11.0206C28.7465 11.0815 28.694 11.163 28.6685 11.2543C28.3738 12.2391 28.457 13.2983 28.9019 14.2249C29.0291 14.6312 29.2368 15.0076 29.5127 15.3318C29.7886 15.656 30.1269 15.9213 30.5076 16.1118C30.1992 16.9399 29.8542 17.7538 29.4735 18.5512C29.4372 18.1503 29.3538 17.7551 29.2252 17.3737C28.7783 16.0516 28.0757 15.4663 27.3551 15.3062C27.2585 15.2912 27.1597 15.3071 27.0727 15.3517C26.9858 15.3963 26.9151 15.4673 26.871 15.5545C26.6508 16.0234 26.5262 16.5315 26.5046 17.0491C26.483 17.5667 26.5647 18.0835 26.745 18.5692C26.9351 19.4987 27.4851 20.3153 28.275 20.8409C27.8364 21.6001 27.366 22.3404 26.8648 23.0598C26.8868 22.6079 26.8491 22.155 26.7524 21.7129C26.4421 20.2872 25.7655 19.5529 25.0194 19.2395C24.925 19.2028 24.8213 19.1974 24.7236 19.2243C24.6259 19.2511 24.5394 19.3087 24.477 19.3885C23.9773 20.0445 23.7383 21.0023 23.9835 22.4087C24.0855 23.4358 24.579 24.3842 25.3614 25.0572C24.9419 25.5594 24.3249 26.2514 23.9308 26.6896H22.9656V26.4352C22.9656 25.9765 22.8123 25.5314 22.5311 25.1689C22.2452 24.8073 21.8482 24.5499 21.4014 24.4365C21.1128 24.3651 20.8432 24.2314 20.6116 24.0449C20.38 23.8583 20.192 23.6234 20.0608 23.3565L19.8621 22.9655V19.8621C19.7504 19.9365 19.6325 20.0048 19.5145 20.0731C19.0549 20.3414 18.5323 20.4828 18.0001 20.4828C17.4679 20.4828 16.9452 20.3414 16.4856 20.0731C16.3676 20.0048 16.2497 19.9365 16.138 19.8621V22.9655L15.9394 23.3565C15.8081 23.6234 15.6201 23.8583 15.3885 24.0449C15.1569 24.2314 14.8874 24.3651 14.5987 24.4365C14.1526 24.5478 13.7564 24.8049 13.4731 25.167C13.1897 25.5291 13.0354 25.9754 13.0345 26.4352V26.6896H12.0694C11.6746 26.2514 11.0576 25.5594 10.6387 25.0572C11.4212 24.3842 11.9146 23.4358 12.0166 22.4087C12.2618 21.0023 12.0228 20.0452 11.5232 19.3891C11.4607 19.3093 11.3743 19.2517 11.2766 19.2249C11.1789 19.1981 11.0751 19.2034 10.9807 19.2401C10.234 19.5529 9.55868 20.2872 9.24772 21.7129C9.15128 22.155 9.11371 22.6079 9.13599 23.0598C8.63497 22.3402 8.16428 21.5999 7.72517 20.8409C8.51504 20.3153 9.06503 19.4987 9.25517 18.5692C9.43536 18.0834 9.51697 17.5667 9.49523 17.0491C9.47349 16.5315 9.34884 16.0234 9.12855 15.5545C9.08447 15.4672 9.01389 15.3961 8.92692 15.3514C8.83995 15.3066 8.74105 15.2906 8.64441 15.3056C7.92441 15.4657 7.22179 16.051 6.77427 17.3725C6.64558 17.7543 6.56225 18.1499 6.526 18.5512C6.14575 17.7532 5.80073 16.9389 5.49193 16.1106C5.87263 15.9202 6.21107 15.655 6.48706 15.3309C6.76305 15.0069 6.97092 14.6305 7.09827 14.2243C7.54331 13.2976 7.62586 12.2381 7.33165 11.2537C7.30612 11.1623 7.2535 11.0807 7.1807 11.0198C7.10791 10.9588 7.01836 10.9214 6.92386 10.9123C6.25599 10.926 5.55462 11.3623 4.98917 12.5665C4.84301 12.8797 4.72864 13.2068 4.64779 13.5428C4.52046 13.1017 4.40374 12.6575 4.29772 12.2108C4.29462 12.1972 4.28531 12.1872 4.28096 12.1736C4.4982 11.065 4.50193 9.92543 4.29213 8.81564C3.98055 6.8344 3.40951 5.16226 2.77144 4.87488C2.14579 5.16846 1.63558 7.0144 1.86089 9.18743C1.92675 10.4364 2.36734 11.6367 3.12524 12.6316C3.22951 13.0686 3.34558 13.5056 3.47034 13.9425C3.22082 13.6943 2.95517 13.4646 2.674 13.2536C1.60641 12.4411 0.803857 12.2648 0.201788 12.6223C0.0279952 12.7794 -0.0452462 13.0183 0.0106158 13.2461C0.101772 13.8477 0.319321 14.4231 0.648937 14.9344C0.978553 15.4458 1.41276 15.8816 1.92296 16.213C2.92848 16.8666 3.76144 16.8889 4.34986 16.5997C4.67429 17.4658 5.03713 18.317 5.43731 19.1507C5.09872 18.9251 4.74157 18.7287 4.36972 18.5636C3.10041 17.9901 2.20041 17.9938 1.6002 18.4798C1.43882 18.6598 1.39413 18.9161 1.48537 19.1402C1.68094 19.7243 2.00658 20.2564 2.43773 20.6964C2.86888 21.1364 3.39429 21.4727 3.97434 21.6801C4.40145 21.8877 4.87514 21.9809 5.34907 21.9505C5.823 21.9201 6.28093 21.7673 6.67806 21.5069C7.13878 22.3014 7.63287 23.0761 8.15903 23.8289C7.73538 23.6483 7.29507 23.5097 6.84441 23.4149C5.41993 23.1014 4.45662 23.2945 3.88124 23.9089C3.80902 24.008 3.76732 24.1259 3.76125 24.2483C3.75519 24.3707 3.78503 24.4922 3.8471 24.5979C4.14466 25.1524 4.57039 25.6277 5.08884 25.9843C5.60729 26.3409 6.20345 26.5685 6.82765 26.6481C7.33335 26.7701 7.86161 26.7631 8.36388 26.6276C8.86616 26.4921 9.32632 26.2326 9.70206 25.8728C9.9162 26.1285 10.1694 26.4209 10.4283 26.7145C10.2893 26.741 10.1638 26.8149 10.0732 26.9235C9.98252 27.0322 9.93232 27.1688 9.9311 27.3103V28.5517C9.9311 28.7163 9.99649 28.8742 10.1129 28.9906C10.2293 29.107 10.3872 29.1724 10.5518 29.1724H25.4483C25.613 29.1724 25.7708 29.107 25.8872 28.9906C26.0036 28.8742 26.069 28.7163 26.069 28.5517V27.3103C26.0678 27.1688 26.0176 27.0322 25.927 26.9235C25.8363 26.8149 25.7108 26.741 25.5719 26.7145C25.8307 26.4209 26.0839 26.1279 26.2981 25.8728C26.6738 26.2326 27.134 26.4921 27.6362 26.6276C28.1385 26.7631 28.6668 26.7701 29.1725 26.6481C29.7966 26.5684 30.3926 26.3408 30.9109 25.9842C31.4293 25.6276 31.8549 25.1523 32.1524 24.5979C32.2146 24.4923 32.2445 24.3708 32.2386 24.2484C32.2326 24.126 32.191 24.008 32.1189 23.9089C31.5435 23.2945 30.5796 23.1014 29.1563 23.4149C28.7051 23.5092 28.2644 23.6483 27.8405 23.8295C28.3672 23.0766 28.8617 22.3017 29.3227 21.5069C29.7198 21.7673 30.1777 21.9201 30.6517 21.9505C31.1256 21.9809 31.5993 21.8877 32.0264 21.6801C32.6065 21.4727 33.1319 21.1364 33.563 20.6964C33.9942 20.2564 34.3198 19.7243 34.5154 19.1402C34.6066 18.9161 34.5619 18.6598 34.4005 18.4798C33.8003 17.9938 32.9003 17.9901 31.631 18.5636C31.2586 18.7287 30.9017 18.9254 30.5634 19.1514C30.9633 18.3175 31.326 17.4663 31.6503 16.6003C32.2387 16.8896 33.0723 16.8672 34.0772 16.213C34.5874 15.8816 35.0216 15.4458 35.3512 14.9344C35.6808 14.4231 35.8984 13.8477 35.9895 13.2461C36.0167 13.1347 36.0134 13.0179 35.9797 12.9082C35.946 12.7985 35.8834 12.7 35.7983 12.6229Z" fill="url(#paint2_linear_271_220)"/>
<path d="M8.37961 8.06897H9.46582C9.49685 8.06524 9.52789 8.05904 9.5583 8.05035L9.55892 8.05655C9.90589 10.3339 10.7663 12.5025 12.0749 14.3983C13.3836 16.2941 15.1063 17.8675 17.1127 18.9993C17.6602 19.3221 18.3404 19.3221 18.8879 18.9993C20.8943 17.8675 22.617 16.2941 23.9257 14.3983C25.2343 12.5025 26.0947 10.3339 26.4417 8.05655L26.4423 8.05035C26.4726 8.059 26.5035 8.06523 26.5348 8.06897H27.621C28.5261 8.06798 29.3938 7.708 30.0338 7.068C30.6738 6.428 31.0338 5.56026 31.0348 4.65517C31.0338 3.75008 30.6738 2.88234 30.0338 2.24235C29.3938 1.60235 28.5261 1.24237 27.621 1.24138H26.51C26.4746 1.24523 26.4397 1.25229 26.4057 1.26248L26.4044 1.25379C26.3486 0.931035 26.2927 0.664138 26.2369 0.44069C26.2051 0.314888 26.1323 0.203258 26.03 0.123446C25.9277 0.043635 25.8018 0.000197064 25.672 0L10.3286 0C10.1988 0.000197064 10.0729 0.043635 9.97056 0.123446C9.86827 0.203258 9.7955 0.314888 9.76375 0.44069C9.70789 0.664138 9.65203 0.931035 9.59616 1.25379L9.59492 1.26248C9.56088 1.25229 9.52598 1.24523 9.49065 1.24138H8.37961C7.47452 1.24237 6.60678 1.60235 5.96679 2.24235C5.32679 2.88234 4.96681 3.75008 4.96582 4.65517C4.96681 5.56026 5.32679 6.428 5.96679 7.068C6.60678 7.708 7.47452 8.06798 8.37961 8.06897ZM27.621 2.48276C28.1968 2.48374 28.7488 2.71294 29.156 3.12013C29.5632 3.52732 29.7924 4.07932 29.7934 4.65517C29.7927 5.23113 29.5637 5.78331 29.1564 6.19058C28.7491 6.59784 28.1969 6.82693 27.621 6.82759H26.6093C26.7582 5.38262 26.7502 3.92586 26.5844 2.48276H27.621ZM6.84713 3.1171C7.04739 2.91455 7.28612 2.75409 7.5493 2.64515C7.81248 2.53621 8.09478 2.481 8.37961 2.48276H9.41616C9.2505 3.92586 9.24218 5.38269 9.39134 6.82759H8.37961C7.80365 6.82693 7.25147 6.59784 6.84421 6.19058C6.43695 5.78331 6.20786 5.23113 6.2072 4.65517C6.2057 4.36905 6.26156 4.08553 6.37147 3.82136C6.48138 3.55719 6.64312 3.31772 6.84713 3.1171Z" fill="#8A8A8A"/>
<path d="M8.37961 8.06897H9.46582C9.49685 8.06524 9.52789 8.05904 9.5583 8.05035L9.55892 8.05655C9.90589 10.3339 10.7663 12.5025 12.0749 14.3983C13.3836 16.2941 15.1063 17.8675 17.1127 18.9993C17.6602 19.3221 18.3404 19.3221 18.8879 18.9993C20.8943 17.8675 22.617 16.2941 23.9257 14.3983C25.2343 12.5025 26.0947 10.3339 26.4417 8.05655L26.4423 8.05035C26.4726 8.059 26.5035 8.06523 26.5348 8.06897H27.621C28.5261 8.06798 29.3938 7.708 30.0338 7.068C30.6738 6.428 31.0338 5.56026 31.0348 4.65517C31.0338 3.75008 30.6738 2.88234 30.0338 2.24235C29.3938 1.60235 28.5261 1.24237 27.621 1.24138H26.51C26.4746 1.24523 26.4397 1.25229 26.4057 1.26248L26.4044 1.25379C26.3486 0.931035 26.2927 0.664138 26.2369 0.44069C26.2051 0.314888 26.1323 0.203258 26.03 0.123446C25.9277 0.043635 25.8018 0.000197064 25.672 0L10.3286 0C10.1988 0.000197064 10.0729 0.043635 9.97056 0.123446C9.86827 0.203258 9.7955 0.314888 9.76375 0.44069C9.70789 0.664138 9.65203 0.931035 9.59616 1.25379L9.59492 1.26248C9.56088 1.25229 9.52598 1.24523 9.49065 1.24138H8.37961C7.47452 1.24237 6.60678 1.60235 5.96679 2.24235C5.32679 2.88234 4.96681 3.75008 4.96582 4.65517C4.96681 5.56026 5.32679 6.428 5.96679 7.068C6.60678 7.708 7.47452 8.06798 8.37961 8.06897ZM27.621 2.48276C28.1968 2.48374 28.7488 2.71294 29.156 3.12013C29.5632 3.52732 29.7924 4.07932 29.7934 4.65517C29.7927 5.23113 29.5637 5.78331 29.1564 6.19058C28.7491 6.59784 28.1969 6.82693 27.621 6.82759H26.6093C26.7582 5.38262 26.7502 3.92586 26.5844 2.48276H27.621ZM6.84713 3.1171C7.04739 2.91455 7.28612 2.75409 7.5493 2.64515C7.81248 2.53621 8.09478 2.481 8.37961 2.48276H9.41616C9.2505 3.92586 9.24218 5.38269 9.39134 6.82759H8.37961C7.80365 6.82693 7.25147 6.59784 6.84421 6.19058C6.43695 5.78331 6.20786 5.23113 6.2072 4.65517C6.2057 4.36905 6.26156 4.08553 6.37147 3.82136C6.48138 3.55719 6.64312 3.31772 6.84713 3.1171Z" fill="url(#paint3_linear_271_220)"/>
</g>
<defs>
<linearGradient id="paint0_linear_271_220" x1="9.31055" y1="31.3449" x2="26.6899" y2="31.3449" gradientUnits="userSpaceOnUse">
<stop stop-color="#E4F0FF"/>
<stop offset="0.35" stop-color="#E2EEFC"/>
<stop offset="0.5" stop-color="#DBE7F5"/>
<stop offset="0.61" stop-color="#D1DBE9"/>
<stop offset="0.7" stop-color="#C1CBD7"/>
<stop offset="0.78" stop-color="#ADB5C0"/>
<stop offset="0.85" stop-color="#949AA4"/>
<stop offset="0.92" stop-color="#767A82"/>
<stop offset="0.98" stop-color="#55575C"/>
<stop offset="1" stop-color="#48494D"/>
</linearGradient>
<linearGradient id="paint1_linear_271_220" x1="8.06934" y1="34.7587" x2="27.9314" y2="34.7587" gradientUnits="userSpaceOnUse">
<stop stop-color="#E4F0FF"/>
<stop offset="0.35" stop-color="#E2EEFC"/>
<stop offset="0.5" stop-color="#DBE7F5"/>
<stop offset="0.61" stop-color="#D1DBE9"/>
<stop offset="0.7" stop-color="#C1CBD7"/>
<stop offset="0.78" stop-color="#ADB5C0"/>
<stop offset="0.85" stop-color="#949AA4"/>
<stop offset="0.92" stop-color="#767A82"/>
<stop offset="0.98" stop-color="#55575C"/>
<stop offset="1" stop-color="#48494D"/>
</linearGradient>
<linearGradient id="paint2_linear_271_220" x1="-0.0078125" y1="17.0246" x2="36.0077" y2="17.0246" gradientUnits="userSpaceOnUse">
<stop stop-color="#E4F0FF"/>
<stop offset="0.35" stop-color="#E2EEFC"/>
<stop offset="0.5" stop-color="#DBE7F5"/>
<stop offset="0.61" stop-color="#D1DBE9"/>
<stop offset="0.7" stop-color="#C1CBD7"/>
<stop offset="0.78" stop-color="#ADB5C0"/>
<stop offset="0.85" stop-color="#949AA4"/>
<stop offset="0.92" stop-color="#767A82"/>
<stop offset="0.98" stop-color="#55575C"/>
<stop offset="1" stop-color="#48494D"/>
</linearGradient>
<linearGradient id="paint3_linear_271_220" x1="4.96582" y1="9.62147" x2="31.0348" y2="9.62147" gradientUnits="userSpaceOnUse">
<stop stop-color="#E4F0FF"/>
<stop offset="0.35" stop-color="#E2EEFC"/>
<stop offset="0.5" stop-color="#DBE7F5"/>
<stop offset="0.61" stop-color="#D1DBE9"/>
<stop offset="0.7" stop-color="#C1CBD7"/>
<stop offset="0.78" stop-color="#ADB5C0"/>
<stop offset="0.85" stop-color="#949AA4"/>
<stop offset="0.92" stop-color="#767A82"/>
<stop offset="0.98" stop-color="#55575C"/>
<stop offset="1" stop-color="#48494D"/>
</linearGradient>
<clipPath id="clip0_271_220">
<rect width="36" height="36" fill="white"/>
</clipPath>
</defs>
</svg>
