<svg xmlns="http://www.w3.org/2000/svg" width="36" height="36" fill="none"><g clip-path="url(#a)"><path fill="#8A8A8A" d="M10.552 30.414 9.31 32.276H26.69l-1.242-1.862H10.552Z"/><path fill="url(#b)" d="M10.552 30.414 9.31 32.276H26.69l-1.242-1.862H10.552Z"/><path fill="#8A8A8A" d="M27.31 33.517H8.69a.62.62 0 0 0-.62.62v1.242c0 .343.277.621.62.621h18.62a.62.62 0 0 0 .621-.62v-1.242a.62.62 0 0 0-.62-.62Z"/><path fill="url(#c)" d="M27.31 33.517H8.69a.62.62 0 0 0-.62.62v1.242c0 .343.277.621.62.621h18.62a.62.62 0 0 0 .621-.62v-1.242a.62.62 0 0 0-.62-.62Z"/><path fill="#8A8A8A" d="M35.798 12.623c-.602-.358-1.404-.181-2.472.631-.28.211-.547.44-.796.69.124-.438.24-.875.345-1.312a6.224 6.224 0 0 0 1.264-3.444c.226-2.173-.285-4.019-.91-4.313-.638.288-1.21 1.96-1.521 3.941a8.866 8.866 0 0 0 .011 3.358c-.004.013-.014.023-.017.037-.106.447-.223.891-.35 1.332a5.161 5.161 0 0 0-.342-.976c-.565-1.204-1.266-1.64-1.934-1.654a.47.47 0 0 0-.407.341 4.128 4.128 0 0 0 .233 2.97 3.168 3.168 0 0 0 1.606 1.888 29.806 29.806 0 0 1-1.034 2.44c-.037-.402-.12-.797-.249-1.178-.447-1.322-1.15-1.908-1.87-2.068a.463.463 0 0 0-.484.249 3.899 3.899 0 0 0-.126 3.014c.19.93.74 1.746 1.53 2.272-.439.76-.909 1.5-1.41 2.219a5.135 5.135 0 0 0-.113-1.347c-.31-1.426-.986-2.16-1.733-2.474a.471.471 0 0 0-.542.15c-.5.655-.739 1.613-.494 3.02a4.017 4.017 0 0 0 1.378 2.648 68.015 68.015 0 0 1-1.43 1.633h-.965v-.255c0-.458-.154-.904-.435-1.266a2.098 2.098 0 0 0-1.13-.733 2.04 2.04 0 0 1-1.34-1.08l-.199-.39v-3.104c-.112.075-.23.143-.347.211a3.004 3.004 0 0 1-3.03 0 6.498 6.498 0 0 1-.347-.21v3.102l-.199.392a2.04 2.04 0 0 1-1.34 1.08 2.063 2.063 0 0 0-1.565 1.998v.255h-.965a65.25 65.25 0 0 1-1.43-1.633 4.017 4.017 0 0 0 1.378-2.648c.245-1.407.006-2.364-.494-3.02a.472.472 0 0 0-.542-.149c-.747.313-1.422 1.047-1.733 2.473a5.134 5.134 0 0 0-.112 1.347c-.501-.72-.972-1.46-1.41-2.22a3.594 3.594 0 0 0 1.53-2.27 3.9 3.9 0 0 0-.127-3.015.463.463 0 0 0-.485-.25c-.72.16-1.422.746-1.87 2.067a5.137 5.137 0 0 0-.248 1.18 30.19 30.19 0 0 1-1.034-2.441 3.169 3.169 0 0 0 1.606-1.887 4.13 4.13 0 0 0 .234-2.97.47.47 0 0 0-.408-.342c-.668.014-1.37.45-1.935 1.654-.146.314-.26.64-.341.977a28.7 28.7 0 0 1-.35-1.332c-.003-.014-.013-.024-.017-.037a8.882 8.882 0 0 0 .011-3.358c-.311-1.982-.882-3.654-1.52-3.941-.626.293-1.136 2.14-.911 4.312a6.225 6.225 0 0 0 1.264 3.445c.105.437.22.874.345 1.31a7.576 7.576 0 0 0-.796-.688c-1.068-.813-1.87-.99-2.472-.632a.636.636 0 0 0-.191.624 4.307 4.307 0 0 0 1.912 2.967c1.005.654 1.838.676 2.427.387.324.866.687 1.717 1.087 2.55a7.18 7.18 0 0 0-1.067-.586c-1.27-.574-2.17-.57-2.77-.084a.632.632 0 0 0-.115.66 4.07 4.07 0 0 0 2.49 2.54 2.743 2.743 0 0 0 2.703-.173c.46.794.955 1.57 1.481 2.322a7.056 7.056 0 0 0-1.315-.414c-1.424-.314-2.387-.12-2.963.494a.63.63 0 0 0-.034.689 3.949 3.949 0 0 0 2.98 2.05 3.104 3.104 0 0 0 2.875-.775c.214.255.467.548.726.841a.612.612 0 0 0-.497.596v1.242a.62.62 0 0 0 .62.62h14.897a.62.62 0 0 0 .621-.62V27.31a.612.612 0 0 0-.497-.595c.259-.294.512-.587.726-.842a3.103 3.103 0 0 0 2.875.775 3.95 3.95 0 0 0 2.98-2.05.629.629 0 0 0-.034-.69c-.575-.614-1.54-.807-2.963-.493a6.982 6.982 0 0 0-1.316.415 32.488 32.488 0 0 0 1.483-2.323 2.744 2.744 0 0 0 2.703.173 4.069 4.069 0 0 0 2.49-2.54.632.632 0 0 0-.115-.66c-.6-.486-1.5-.49-2.77.084-.372.165-.73.361-1.068.587.4-.834.763-1.685 1.087-2.55.589.289 1.422.266 2.427-.388a4.307 4.307 0 0 0 1.913-2.967.637.637 0 0 0-.192-.623Z"/><path fill="url(#d)" d="M35.798 12.623c-.602-.358-1.404-.181-2.472.631-.28.211-.547.44-.796.69.124-.438.24-.875.345-1.312a6.224 6.224 0 0 0 1.264-3.444c.226-2.173-.285-4.019-.91-4.313-.638.288-1.21 1.96-1.521 3.941a8.866 8.866 0 0 0 .011 3.358c-.004.013-.014.023-.017.037-.106.447-.223.891-.35 1.332a5.161 5.161 0 0 0-.342-.976c-.565-1.204-1.266-1.64-1.934-1.654a.47.47 0 0 0-.407.341 4.128 4.128 0 0 0 .233 2.97 3.168 3.168 0 0 0 1.606 1.888 29.806 29.806 0 0 1-1.034 2.44c-.037-.402-.12-.797-.249-1.178-.447-1.322-1.15-1.908-1.87-2.068a.463.463 0 0 0-.484.249 3.899 3.899 0 0 0-.126 3.014c.19.93.74 1.746 1.53 2.272-.439.76-.909 1.5-1.41 2.219a5.135 5.135 0 0 0-.113-1.347c-.31-1.426-.986-2.16-1.733-2.474a.471.471 0 0 0-.542.15c-.5.655-.739 1.613-.494 3.02a4.017 4.017 0 0 0 1.378 2.648 68.015 68.015 0 0 1-1.43 1.633h-.965v-.255c0-.458-.154-.904-.435-1.266a2.098 2.098 0 0 0-1.13-.733 2.04 2.04 0 0 1-1.34-1.08l-.199-.39v-3.104c-.112.075-.23.143-.347.211a3.004 3.004 0 0 1-3.03 0 6.498 6.498 0 0 1-.347-.21v3.102l-.199.392a2.04 2.04 0 0 1-1.34 1.08 2.063 2.063 0 0 0-1.565 1.998v.255h-.965a65.25 65.25 0 0 1-1.43-1.633 4.017 4.017 0 0 0 1.378-2.648c.245-1.407.006-2.364-.494-3.02a.472.472 0 0 0-.542-.149c-.747.313-1.422 1.047-1.733 2.473a5.134 5.134 0 0 0-.112 1.347c-.501-.72-.972-1.46-1.41-2.22a3.594 3.594 0 0 0 1.53-2.27 3.9 3.9 0 0 0-.127-3.015.463.463 0 0 0-.485-.25c-.72.16-1.422.746-1.87 2.067a5.137 5.137 0 0 0-.248 1.18 30.19 30.19 0 0 1-1.034-2.441 3.169 3.169 0 0 0 1.606-1.887 4.13 4.13 0 0 0 .234-2.97.47.47 0 0 0-.408-.342c-.668.014-1.37.45-1.935 1.654-.146.314-.26.64-.341.977a28.7 28.7 0 0 1-.35-1.332c-.003-.014-.013-.024-.017-.037a8.882 8.882 0 0 0 .011-3.358c-.311-1.982-.882-3.654-1.52-3.941-.626.293-1.136 2.14-.911 4.312a6.225 6.225 0 0 0 1.264 3.445c.105.437.22.874.345 1.31a7.576 7.576 0 0 0-.796-.688c-1.068-.813-1.87-.99-2.472-.632a.636.636 0 0 0-.191.624 4.307 4.307 0 0 0 1.912 2.967c1.005.654 1.838.676 2.427.387.324.866.687 1.717 1.087 2.55a7.18 7.18 0 0 0-1.067-.586c-1.27-.574-2.17-.57-2.77-.084a.632.632 0 0 0-.115.66 4.07 4.07 0 0 0 2.49 2.54 2.743 2.743 0 0 0 2.703-.173c.46.794.955 1.57 1.481 2.322a7.056 7.056 0 0 0-1.315-.414c-1.424-.314-2.387-.12-2.963.494a.63.63 0 0 0-.034.689 3.949 3.949 0 0 0 2.98 2.05 3.104 3.104 0 0 0 2.875-.775c.214.255.467.548.726.841a.612.612 0 0 0-.497.596v1.242a.62.62 0 0 0 .62.62h14.897a.62.62 0 0 0 .621-.62V27.31a.612.612 0 0 0-.497-.595c.259-.294.512-.587.726-.842a3.103 3.103 0 0 0 2.875.775 3.95 3.95 0 0 0 2.98-2.05.629.629 0 0 0-.034-.69c-.575-.614-1.54-.807-2.963-.493a6.982 6.982 0 0 0-1.316.415 32.488 32.488 0 0 0 1.483-2.323 2.744 2.744 0 0 0 2.703.173 4.069 4.069 0 0 0 2.49-2.54.632.632 0 0 0-.115-.66c-.6-.486-1.5-.49-2.77.084-.372.165-.73.361-1.068.587.4-.834.763-1.685 1.087-2.55.589.289 1.422.266 2.427-.388a4.307 4.307 0 0 0 1.913-2.967.637.637 0 0 0-.192-.623Z"/><path fill="#8A8A8A" d="M8.38 8.069h1.086a.596.596 0 0 0 .092-.019v.007a15.192 15.192 0 0 0 7.555 10.942 1.748 1.748 0 0 0 1.775 0 15.19 15.19 0 0 0 7.554-10.942V8.05c.03.009.061.015.093.019h1.086a3.417 3.417 0 0 0 3.414-3.414 3.418 3.418 0 0 0-3.414-3.414H26.51a.583.583 0 0 0-.104.021l-.002-.008a11.38 11.38 0 0 0-.167-.813.584.584 0 0 0-.565-.441H10.329a.583.583 0 0 0-.565.44c-.056.224-.112.491-.168.814l-.001.008a.584.584 0 0 0-.104-.02H8.38a3.417 3.417 0 0 0-3.414 3.413A3.418 3.418 0 0 0 8.38 8.07ZM27.62 2.483a2.176 2.176 0 0 1 2.172 2.172 2.175 2.175 0 0 1-2.172 2.173h-1.012c.15-1.445.141-2.902-.025-4.345h1.037Zm-20.774.634a2.137 2.137 0 0 1 1.533-.634h1.036a20.047 20.047 0 0 0-.025 4.345H8.38A2.175 2.175 0 0 1 6.37 3.82c.11-.264.272-.503.476-.704Z"/><path fill="url(#e)" d="M8.38 8.069h1.086a.596.596 0 0 0 .092-.019v.007a15.192 15.192 0 0 0 7.555 10.942 1.748 1.748 0 0 0 1.775 0 15.19 15.19 0 0 0 7.554-10.942V8.05c.03.009.061.015.093.019h1.086a3.417 3.417 0 0 0 3.414-3.414 3.418 3.418 0 0 0-3.414-3.414H26.51a.583.583 0 0 0-.104.021l-.002-.008a11.38 11.38 0 0 0-.167-.813.584.584 0 0 0-.565-.441H10.329a.583.583 0 0 0-.565.44c-.056.224-.112.491-.168.814l-.001.008a.584.584 0 0 0-.104-.02H8.38a3.417 3.417 0 0 0-3.414 3.413A3.418 3.418 0 0 0 8.38 8.07ZM27.62 2.483a2.176 2.176 0 0 1 2.172 2.172 2.175 2.175 0 0 1-2.172 2.173h-1.012c.15-1.445.141-2.902-.025-4.345h1.037Zm-20.774.634a2.137 2.137 0 0 1 1.533-.634h1.036a20.047 20.047 0 0 0-.025 4.345H8.38A2.175 2.175 0 0 1 6.37 3.82c.11-.264.272-.503.476-.704Z"/></g><defs><linearGradient id="b" x1="9.311" x2="26.69" y1="31.345" y2="31.345" gradientUnits="userSpaceOnUse"><stop stop-color="#E4F0FF"/><stop offset=".35" stop-color="#E2EEFC"/><stop offset=".5" stop-color="#DBE7F5"/><stop offset=".61" stop-color="#D1DBE9"/><stop offset=".7" stop-color="#C1CBD7"/><stop offset=".78" stop-color="#ADB5C0"/><stop offset=".85" stop-color="#949AA4"/><stop offset=".92" stop-color="#767A82"/><stop offset=".98" stop-color="#55575C"/><stop offset="1" stop-color="#48494D"/></linearGradient><linearGradient id="c" x1="8.069" x2="27.931" y1="34.759" y2="34.759" gradientUnits="userSpaceOnUse"><stop stop-color="#E4F0FF"/><stop offset=".35" stop-color="#E2EEFC"/><stop offset=".5" stop-color="#DBE7F5"/><stop offset=".61" stop-color="#D1DBE9"/><stop offset=".7" stop-color="#C1CBD7"/><stop offset=".78" stop-color="#ADB5C0"/><stop offset=".85" stop-color="#949AA4"/><stop offset=".92" stop-color="#767A82"/><stop offset=".98" stop-color="#55575C"/><stop offset="1" stop-color="#48494D"/></linearGradient><linearGradient id="d" x1="-.008" x2="36.008" y1="17.025" y2="17.025" gradientUnits="userSpaceOnUse"><stop stop-color="#E4F0FF"/><stop offset=".35" stop-color="#E2EEFC"/><stop offset=".5" stop-color="#DBE7F5"/><stop offset=".61" stop-color="#D1DBE9"/><stop offset=".7" stop-color="#C1CBD7"/><stop offset=".78" stop-color="#ADB5C0"/><stop offset=".85" stop-color="#949AA4"/><stop offset=".92" stop-color="#767A82"/><stop offset=".98" stop-color="#55575C"/><stop offset="1" stop-color="#48494D"/></linearGradient><linearGradient id="e" x1="4.966" x2="31.035" y1="9.621" y2="9.621" gradientUnits="userSpaceOnUse"><stop stop-color="#E4F0FF"/><stop offset=".35" stop-color="#E2EEFC"/><stop offset=".5" stop-color="#DBE7F5"/><stop offset=".61" stop-color="#D1DBE9"/><stop offset=".7" stop-color="#C1CBD7"/><stop offset=".78" stop-color="#ADB5C0"/><stop offset=".85" stop-color="#949AA4"/><stop offset=".92" stop-color="#767A82"/><stop offset=".98" stop-color="#55575C"/><stop offset="1" stop-color="#48494D"/></linearGradient><clipPath id="a"><path fill="#fff" d="M0 0h36v36H0z"/></clipPath></defs></svg>