<svg xmlns="http://www.w3.org/2000/svg" width="266" height="339" fill="none"><path fill="#fff" d="M1.14 311.691h6.69c4.07 0 6.88 2.56 6.88 7.22s-2.53 7.5-7.3 7.5H3.99v11.21H1.14v-25.93Zm2.85 12.32h3.12c3.11 0 4.71-1.65 4.71-5.12 0-2.86-1.5-4.77-4.38-4.77H3.99v9.9-.01ZM30.59 325.181h-8.65v9.93h9.61l-.39 2.51H19.12v-25.93h11.9v2.54h-9.08v8.42h8.65v2.53ZM38.48 325.693v11.94h-2.83v-25.93h6.76c4.35 0 6.63 2.47 6.63 6.7 0 3.88-1.9 5.53-3.47 6.06 2.4.86 3.15 2.98 3.15 6.61v1.03c0 2.41.08 4.13.37 5.53h-2.83c-.36-1.18-.38-3.49-.38-5.59v-.88c0-3.69-.75-5.46-4.25-5.46h-3.15v-.01Zm0-2.42h3.31c3.15 0 4.35-1.78 4.35-4.8 0-2.61-1.2-4.36-4.07-4.36h-3.59v9.16ZM55.81 330.812c.2 2.66 1.49 4.79 4.33 4.79s4.09-1.49 4.09-4.47c0-2.73-1.11-4.18-4.63-5.88-4.06-1.94-5.85-3.74-5.85-7.49 0-3.56 2.28-6.41 6.51-6.41 5.01 0 6.36 3.59 6.44 6.63h-2.8c-.13-1.26-.51-4.25-3.73-4.25-2.49 0-3.55 1.71-3.55 3.78 0 2.48 1.11 3.65 4.36 5.2 4.53 2.16 6.19 4.32 6.19 8.18 0 4.1-2.31 7.09-7.08 7.09-5.2 0-6.91-3.4-7.11-7.17h2.86-.03ZM86.21 324.43c0 8.84-2.1 13.58-7.72 13.58-5.62 0-7.55-4.57-7.55-13.53 0-8.96 2.59-13.16 7.68-13.16 5.37 0 7.59 4.32 7.59 13.11Zm-12.33-.02c0 7.39 1.49 11.12 4.7 11.12s4.69-3.62 4.69-11.07-1.49-10.65-4.72-10.65c-3.23 0-4.68 3.54-4.68 10.61l.01-.01ZM91.28 337.633v-25.93h3.5c7.17 17.95 8.18 20.39 8.51 21.52h.04c-.18-3.48-.23-7.39-.23-11.6v-9.92h2.67v25.93h-3.35c-7.44-18.86-8.36-21.24-8.66-22.26h-.04c.19 3.24.22 7.49.22 12.16v10.1h-2.66ZM114.4 329.403l-1.89 8.23h-2.85l6.26-25.93h3.69l6.45 25.93h-3.03l-1.91-8.23h-6.74.02Zm6.16-2.53c-1.51-6.37-2.48-10.42-2.82-12.49h-.09c-.36 2.26-1.41 6.92-2.69 12.49h5.6ZM129.88 311.691h2.85v23.43h9.26l-.41 2.5h-11.7v-25.93ZM156.83 314.243h-5.78v-2.54h14.41v2.54h-5.78v23.39h-2.84v-23.39h-.01ZM172 325.693v11.94h-2.83v-25.93h6.76c4.35 0 6.63 2.47 6.63 6.7 0 3.88-1.9 5.53-3.47 6.06 2.4.86 3.15 2.98 3.15 6.61v1.03c0 2.41.08 4.13.37 5.53h-2.83c-.36-1.18-.38-3.49-.38-5.59v-.88c0-3.69-.75-5.46-4.25-5.46H172v-.01Zm0-2.42h3.31c3.15 0 4.35-1.78 4.35-4.8 0-2.61-1.2-4.36-4.07-4.36H172v9.16ZM190.8 329.403l-1.89 8.23h-2.85l6.26-25.93h3.69l6.45 25.93h-3.03l-1.91-8.23h-6.74.02Zm6.16-2.53c-1.51-6.37-2.48-10.42-2.82-12.49h-.09c-.36 2.26-1.41 6.92-2.69 12.49h5.6ZM209.13 311.691v25.93h-2.85v-25.93h2.85ZM215.26 337.633v-25.93h3.5c7.17 17.95 8.18 20.39 8.5 21.52h.04c-.18-3.48-.23-7.39-.23-11.6v-9.92h2.67v25.93h-3.35c-7.44-18.86-8.36-21.24-8.66-22.26h-.04c.19 3.24.22 7.49.22 12.16v10.1h-2.66.01ZM247.31 325.181h-8.65v9.93h9.61l-.39 2.51h-12.04v-25.93h11.9v2.54h-9.08v8.42h8.65v2.53ZM255.2 325.693v11.94h-2.83v-25.93h6.76c4.35 0 6.63 2.47 6.63 6.7 0 3.88-1.9 5.53-3.47 6.06 2.4.86 3.15 2.98 3.15 6.61v1.03c0 2.41.08 4.13.37 5.53h-2.83c-.36-1.18-.38-3.49-.38-5.59v-.88c0-3.69-.75-5.46-4.25-5.46h-3.15v-.01Zm0-2.42h3.31c3.15 0 4.35-1.78 4.35-4.8 0-2.61-1.2-4.36-4.07-4.36h-3.59v9.16ZM0 265.971h7.77c7.67 0 10.64 4.91 10.64 14.29 0 10.06-2.85 15.51-11.06 15.51H0v-29.81.01Zm5.38 25.45h1.91c4.17 0 5.61-3.14 5.61-11.13 0-6.86-1.28-9.87-5.56-9.87H5.39v21.01l-.01-.01ZM26.79 288.271l-1.48 7.5h-5.35l6.9-29.81h6.93l6.98 29.81h-5.6l-1.49-7.5h-6.9.01Zm5.95-4.63c-1.11-5.7-2-9.87-2.47-12.72h-.13c-.36 2.74-1.31 7.22-2.41 12.72h5.01ZM43.31 295.771v-29.81h6.06c6.16 16.47 7.35 19.61 7.7 21.07h.04c-.25-3.58-.26-7.97-.26-12.85v-8.22h4.77v29.81h-5.81c-6.36-17.56-7.49-20.73-7.88-22.09h-.04c.22 3.67.23 8.06.23 13.4v8.69h-4.81ZM72.13 265.973v29.81h-5.35v-29.81h5.35ZM77.4 265.971h5.35v25.25h10.2l-.52 4.55H77.4v-29.81.01ZM101.54 288.271l-1.48 7.5h-5.35l6.9-29.81h6.93l6.98 29.81h-5.6l-1.49-7.5h-6.9.01Zm5.95-4.63c-1.11-5.7-2-9.87-2.47-12.72h-.13c-.36 2.74-1.31 7.22-2.41 12.72h5.01ZM130.15 287.422c.26 2.47 1.25 4.65 3.98 4.65s3.6-1.65 3.6-3.86c0-2.45-1.21-3.87-4.97-5.67-5.1-2.42-7.1-4.57-7.1-9 0-4.78 3.07-8.05 8.46-8.05 6.71 0 8.36 4.54 8.45 8.42h-5.23c-.17-1.7-.61-4.21-3.31-4.21-2.11 0-3.06 1.37-3.06 3.39 0 2.15.95 3.15 4.45 4.77 5.35 2.47 7.75 4.87 7.75 9.86 0 4.68-2.9 8.55-9.2 8.55-6.85 0-8.94-4.39-9.13-8.85h5.31ZM146.86 265.973h5.35v11.78h7.18v-11.78h5.35v29.81h-5.35v-13.39h-7.18v13.39h-5.35v-29.81ZM188.28 280.64c0 10.9-2.96 15.64-9.83 15.64-6.42 0-9.55-4.67-9.55-15.71 0-11.04 3.64-15.09 9.79-15.09 6.5 0 9.59 4.8 9.59 15.15v.01Zm-13.91-.11c0 7.07 1.07 11.28 4.2 11.28 3.29 0 4.23-3.9 4.23-11.27 0-6.93-1-10.53-4.24-10.53s-4.2 3.88-4.2 10.52h.01ZM192.45 265.973h5.27v13.36c1.65-2.72 5.46-9.49 7.86-13.36h6.15l-7.69 11.65 7.84 18.16h-5.93l-5.55-13.7-2.68 3.77v9.93h-5.27v-29.81ZM213.9 265.973h5.35v11.78h7.18v-11.78h5.35v29.81h-5.35v-13.39h-7.18v13.39h-5.35v-29.81ZM242.329 265.973v29.81h-5.35v-29.81h5.35ZM247.6 295.771v-29.81h6.06c6.16 16.47 7.35 19.61 7.7 21.07h.04c-.25-3.58-.26-7.97-.26-12.85v-8.22h4.77v29.81h-5.81c-6.36-17.56-7.49-20.73-7.88-22.09h-.04c.22 3.67.23 8.06.23 13.4v8.69h-4.81Z"/><path fill="url(#a)" d="M69.93 91.723H52.67v92.6l17.26-14.09v-78.51Z"/><path fill="url(#b)" d="M162.13 125.042a66.264 66.264 0 0 1-11.61-8.7c-2.45-2.3-4.71-4.78-6.77-7.42.4 3.12.6 6.38.58 9.78 0 36.11-20.04 56.74-56.94 56.74-5.54 0-10.79-.14-14.92-.63l-16.29 13.3c7.95.77 17.14 1.22 27.83 1.22 25.99 0 46.62-6.75 59.12-19.24 11.15-10.97 17.7-26.37 18.99-45.05h.01Z"/><path fill="url(#c)" d="M185.61 112.561c-15.12-5.85-23.3-11.05-25.77-19.61-2.93-6-6.53-11.6-10.75-16.7-1.1-1.33-2.26-2.61-3.45-3.88a82.89 82.89 0 0 0-4.53-4.46c-22.99-19.59-55.62-14.89-63.91-13.69-2.99.43-5.45.94-7.16 1.33-5.79 3.85-11.58 7.71-17.37 11.56h32.88v.08c1.48-.05 3-.08 4.62-.08 26.46 0 43.12 10.54 50.21 28.35 1.22 2.46 2.59 4.82 4.1 7.08 2.59 3.87 5.59 7.43 9 10.63a62.49 62.49 0 0 0 10.42 7.87c3.9 2.06 8.24 3.9 12.98 5.58 18.05 6.94 25.2 14.08 25.2 26.58 0 4.43-1.11 8.41-3.23 11.76-6.14 9.69-19.48 10.69-24.74 11.05-10.47.72-18.86-2.56-23.67-4.99-3.88 3.58-7.76 7.16-11.64 10.75 7.14 4.76 21.23 8.53 34.12 8.53 31.54 0 46.82-17.85 46.82-38.49s-11.51-30.55-34.12-39.28l-.01.03Z"/><path fill="url(#d)" d="M159.38 83.191c1.62-8.17 8.93-16.46 24.84-16.46 12.1 0 21.03 3.97 25.39 6.35l4.76-14.09c-5.95-3.37-15.87-6.55-29.56-6.55-16.52 0-29.51 6.26-36.78 16.17 1.52 1.58 2.99 3.2 4.38 4.88 2.54 3.06 4.86 6.3 6.96 9.69l.01.01Z"/><path fill="url(#e)" d="M132.96 246.02c-67.83 0-123.01-55.18-123.01-123.01C9.95 55.18 65.13 0 132.96 0c67.83 0 123.01 55.18 123.01 123.01 0 67.83-55.18 123.01-123.01 123.01Zm0-235.32c-61.93 0-112.31 50.38-112.31 112.31s50.38 112.31 112.31 112.31 112.31-50.38 112.31-112.31S194.89 10.7 132.96 10.7Z"/><defs><linearGradient id="a" x1="52.67" x2="69.93" y1="138.023" y2="138.023" gradientUnits="userSpaceOnUse"><stop stop-color="#E4F0FF"/><stop offset=".35" stop-color="#E2EEFC"/><stop offset=".5" stop-color="#DBE7F5"/><stop offset=".61" stop-color="#D1DBE9"/><stop offset=".7" stop-color="#C1CBD7"/><stop offset=".78" stop-color="#ADB5C0"/><stop offset=".85" stop-color="#949AA4"/><stop offset=".92" stop-color="#767A82"/><stop offset=".98" stop-color="#55575C"/><stop offset="1" stop-color="#48494D"/></linearGradient><linearGradient id="b" x1="56.18" x2="162.13" y1="149.132" y2="149.132" gradientUnits="userSpaceOnUse"><stop stop-color="#E4F0FF"/><stop offset=".35" stop-color="#E2EEFC"/><stop offset=".5" stop-color="#DBE7F5"/><stop offset=".61" stop-color="#D1DBE9"/><stop offset=".7" stop-color="#C1CBD7"/><stop offset=".78" stop-color="#ADB5C0"/><stop offset=".85" stop-color="#949AA4"/><stop offset=".92" stop-color="#767A82"/><stop offset=".98" stop-color="#55575C"/><stop offset="1" stop-color="#48494D"/></linearGradient><linearGradient id="c" x1="-117.04" x2="219.73" y1="121.601" y2="121.601" gradientUnits="userSpaceOnUse"><stop stop-color="#E4F0FF"/><stop offset=".35" stop-color="#E2EEFC"/><stop offset=".5" stop-color="#DBE7F5"/><stop offset=".61" stop-color="#D1DBE9"/><stop offset=".7" stop-color="#C1CBD7"/><stop offset=".78" stop-color="#ADB5C0"/><stop offset=".85" stop-color="#949AA4"/><stop offset=".92" stop-color="#767A82"/><stop offset=".98" stop-color="#55575C"/><stop offset="1" stop-color="#48494D"/></linearGradient><linearGradient id="d" x1="148.04" x2="214.38" y1="67.821" y2="67.821" gradientUnits="userSpaceOnUse"><stop stop-color="#E4F0FF"/><stop offset=".35" stop-color="#E2EEFC"/><stop offset=".5" stop-color="#DBE7F5"/><stop offset=".61" stop-color="#D1DBE9"/><stop offset=".7" stop-color="#C1CBD7"/><stop offset=".78" stop-color="#ADB5C0"/><stop offset=".85" stop-color="#949AA4"/><stop offset=".92" stop-color="#767A82"/><stop offset=".98" stop-color="#55575C"/><stop offset="1" stop-color="#48494D"/></linearGradient><linearGradient id="e" x1="9.95" x2="255.97" y1="123.02" y2="123.02" gradientUnits="userSpaceOnUse"><stop stop-color="#E4F0FF"/><stop offset=".35" stop-color="#E2EEFC"/><stop offset=".5" stop-color="#DBE7F5"/><stop offset=".61" stop-color="#D1DBE9"/><stop offset=".7" stop-color="#C1CBD7"/><stop offset=".78" stop-color="#ADB5C0"/><stop offset=".85" stop-color="#949AA4"/><stop offset=".92" stop-color="#767A82"/><stop offset=".98" stop-color="#55575C"/><stop offset="1" stop-color="#48494D"/></linearGradient></defs></svg>