<svg xmlns="http://www.w3.org/2000/svg" width="100" height="100" fill="none"><circle cx="50" cy="50" r="49" stroke="url(#a)" stroke-width="2"/><g clip-path="url(#b)"><path fill="url(#c)" d="M29.376 73.831c.537 0 1.083-.13 1.589-.404l13.863-7.516a3.34 3.34 0 0 0 1.726-3.325l-.888-7.585 9.312 8.768-4.037 4.488a3.34 3.34 0 1 0 4.965 4.469l6.013-6.681a3.34 3.34 0 0 0 .04-4.423l-9.95-11.474 10.083-.83 6.637 22.756a2.672 2.672 0 1 0 5.132-1.495l-7.016-24.051a2.643 2.643 0 0 0-.933-1.358l-4.182-4.913-.015-.144-.044-.052a6.648 6.648 0 0 0 4.446 1.704 6.681 6.681 0 1 0-6.681-6.681c0 1.32.387 2.547 1.048 3.583l-2.919-3.428-.434-.51-1.291-1.516-.069.046-.016-.009a2.373 2.373 0 0 0-.369-.215L40.42 26.213a2.36 2.36 0 0 0-2.031.031 2.37 2.37 0 0 0-1.26 1.593c-.107.467-2.592 11.485.102 18.255l.008.02a2.359 2.359 0 0 0 1.659 1.42c.176.041.356.07.54.07a2.37 2.37 0 0 0 2.198-3.25c-.051-.128-.096-.267-.143-.402-.096-.277-.18-.557-.253-.84-.13-.513-.231-1.032-.304-1.555a7.71 7.71 0 0 1-1.196-1.775 7.657 7.657 0 0 1 .803-8.04l.242-.32.4.005a7.644 7.644 0 0 1 6.093 3.12l3.932 1.792.006.003-.387.261-.386.261-.004-.002-1.728 1.174a7.656 7.656 0 0 1-1.496 5.745l-.241.318-.4-.004a7.677 7.677 0 0 1-4.518-1.538l-.113.078c.116.504.256.985.432 1.424.004.01.005.02.01.03.167.432.228.878.203 1.314a3.164 3.164 0 0 1-1.323 2.403c-.201.143-.415.271-.653.365-.373.15-.772.228-1.174.228-.077 0-.151-.013-.226-.017a3.134 3.134 0 0 1-2.414-1.414 1.88 1.88 0 0 0-.054.697l2.91 13.454-11.873 6.437a3.342 3.342 0 0 0 1.596 6.277Z"/><path fill="url(#d)" d="M46.584 43.295a6.916 6.916 0 0 0 1.38-4.753 6.842 6.842 0 0 0-.66-2.455 7.01 7.01 0 0 0-1.068-1.58 6.813 6.813 0 0 0-.98-.885 6.909 6.909 0 0 0-2.702-1.232 6.931 6.931 0 0 0-1.377-.17l-.024.037a6.89 6.89 0 0 0-.696 7.172c.094.193.209.369.319.55.138.228.29.447.454.657a6.7 6.7 0 0 0 .46.54c.327.34.687.638 1.07.9a6.918 6.918 0 0 0 3.824 1.22Z"/></g><defs><linearGradient id="a" x1="0" x2="100" y1="50.004" y2="50.004" gradientUnits="userSpaceOnUse"><stop stop-color="#E4F0FF"/><stop offset=".35" stop-color="#E2EEFC"/><stop offset=".5" stop-color="#DBE7F5"/><stop offset=".61" stop-color="#D1DBE9"/><stop offset=".7" stop-color="#C1CBD7"/><stop offset=".78" stop-color="#ADB5C0"/><stop offset=".85" stop-color="#949AA4"/><stop offset=".92" stop-color="#767A82"/><stop offset=".98" stop-color="#55575C"/><stop offset="1" stop-color="#48494D"/></linearGradient><linearGradient id="c" x1="26.031" x2="73.968" y1="50.002" y2="50.002" gradientUnits="userSpaceOnUse"><stop stop-color="#E4F0FF"/><stop offset=".35" stop-color="#E2EEFC"/><stop offset=".5" stop-color="#DBE7F5"/><stop offset=".61" stop-color="#D1DBE9"/><stop offset=".7" stop-color="#C1CBD7"/><stop offset=".78" stop-color="#ADB5C0"/><stop offset=".85" stop-color="#949AA4"/><stop offset=".92" stop-color="#767A82"/><stop offset=".98" stop-color="#55575C"/><stop offset="1" stop-color="#48494D"/></linearGradient><linearGradient id="d" x1="39.759" x2="47.987" y1="37.758" y2="37.758" gradientUnits="userSpaceOnUse"><stop stop-color="#E4F0FF"/><stop offset=".35" stop-color="#E2EEFC"/><stop offset=".5" stop-color="#DBE7F5"/><stop offset=".61" stop-color="#D1DBE9"/><stop offset=".7" stop-color="#C1CBD7"/><stop offset=".78" stop-color="#ADB5C0"/><stop offset=".85" stop-color="#949AA4"/><stop offset=".92" stop-color="#767A82"/><stop offset=".98" stop-color="#55575C"/><stop offset="1" stop-color="#48494D"/></linearGradient><clipPath id="b"><path fill="#fff" d="M26 26h48v48H26z"/></clipPath></defs></svg>