<svg xmlns="http://www.w3.org/2000/svg" width="100" height="100" fill="none"><circle cx="50" cy="50" r="49" stroke="url(#a)" stroke-width="2"/><path fill="url(#b)" d="M55.272 55.74a2.067 2.067 0 0 1-.523-1.505l.002-.042h-9.808l.003.042a2.067 2.067 0 0 1-.523 1.506c-.143.16-.31.297-.494.407l-.64 5.076c-.008.065-.013.13-.016.196l-.46 9.99a2.477 2.477 0 1 0 4.949.227l.455-9.891.81-6.43h1.64l.81 6.43.455 9.89a2.477 2.477 0 0 0 4.948-.227l-.46-9.989a2.563 2.563 0 0 0-.016-.196l-.64-5.076a2.091 2.091 0 0 1-.492-.407Z"/><path fill="url(#c)" d="M49.848 35.1a4.55 4.55 0 1 0 0-9.1 4.55 4.55 0 0 0 0 9.1Z"/><path fill="url(#d)" d="M69.94 61.86c0 .445.365.809.81.809h.144a.81.81 0 0 0 .781-.61c.09.349.405.61.782.61h.144a.81.81 0 0 0 .77-.577c.102.332.408.577.772.577h.144a.811.811 0 0 0 .81-.809V57.5h1.378v-2.183h6.22v-1.124h-6.22v-2.184h-1.379v-4.36a.811.811 0 0 0-.809-.808h-.145a.809.809 0 0 0-.77.577.81.81 0 0 0-.77-.577h-.145a.81.81 0 0 0-.782.61.81.81 0 0 0-.78-.61h-.146a.811.811 0 0 0-.808.809v6.543H58.922l-.015.285a2.07 2.07 0 0 1-.233.839H69.94v6.543Zm-29.152-7.382-.016-.285H29.756V47.65a.811.811 0 0 0-.809-.809h-.145a.81.81 0 0 0-.78.61.81.81 0 0 0-.781-.61h-.145a.81.81 0 0 0-.772.58.809.809 0 0 0-.771-.58h-.145a.811.811 0 0 0-.809.809v4.36H23.22v2.183H17v1.124h6.22V57.5h1.379v4.359c0 .445.364.809.809.809h.144a.809.809 0 0 0 .772-.58c.1.334.407.58.771.58h.145a.81.81 0 0 0 .781-.61c.09.349.405.61.781.61h.145a.811.811 0 0 0 .809-.809v-6.543h11.265a2.072 2.072 0 0 1-.233-.839Zm.464-.027a1.618 1.618 0 1 0 3.23-.19c-.41-6.998.085-10.726.652-12.69l.464.063c-.532 1.8-1.041 5.326-.68 12.094h9.86c.36-6.768-.15-10.294-.68-12.094l.464-.063c.566 1.964 1.06 5.692.651 12.69a1.617 1.617 0 1 0 3.23.19c.34-5.816.116-10.269-.667-13.32-.455-1.773-1.097-3.074-1.927-3.891-.658-.648-1.304-.875-1.748-.948a1.568 1.568 0 0 0-.347-.04h-7.812c-.12 0-.235.014-.347.04-.444.073-1.09.3-1.748.948-.83.817-1.473 2.118-1.927 3.89-.784 3.052-1.009 7.505-.668 13.321Z"/><defs><linearGradient id="a" x1="0" x2="100" y1="50.004" y2="50.004" gradientUnits="userSpaceOnUse"><stop stop-color="#E4F0FF"/><stop offset=".35" stop-color="#E2EEFC"/><stop offset=".5" stop-color="#DBE7F5"/><stop offset=".61" stop-color="#D1DBE9"/><stop offset=".7" stop-color="#C1CBD7"/><stop offset=".78" stop-color="#ADB5C0"/><stop offset=".85" stop-color="#949AA4"/><stop offset=".92" stop-color="#767A82"/><stop offset=".98" stop-color="#55575C"/><stop offset="1" stop-color="#48494D"/></linearGradient><linearGradient id="b" x1="42.81" x2="56.883" y1="64.097" y2="64.097" gradientUnits="userSpaceOnUse"><stop stop-color="#E4F0FF"/><stop offset=".35" stop-color="#E2EEFC"/><stop offset=".5" stop-color="#DBE7F5"/><stop offset=".61" stop-color="#D1DBE9"/><stop offset=".7" stop-color="#C1CBD7"/><stop offset=".78" stop-color="#ADB5C0"/><stop offset=".85" stop-color="#949AA4"/><stop offset=".92" stop-color="#767A82"/><stop offset=".98" stop-color="#55575C"/><stop offset="1" stop-color="#48494D"/></linearGradient><linearGradient id="c" x1="45.298" x2="54.397" y1="30.55" y2="30.55" gradientUnits="userSpaceOnUse"><stop stop-color="#E4F0FF"/><stop offset=".35" stop-color="#E2EEFC"/><stop offset=".5" stop-color="#DBE7F5"/><stop offset=".61" stop-color="#D1DBE9"/><stop offset=".7" stop-color="#C1CBD7"/><stop offset=".78" stop-color="#ADB5C0"/><stop offset=".85" stop-color="#949AA4"/><stop offset=".92" stop-color="#767A82"/><stop offset=".98" stop-color="#55575C"/><stop offset="1" stop-color="#48494D"/></linearGradient><linearGradient id="d" x1="17" x2="82.695" y1="49.461" y2="49.461" gradientUnits="userSpaceOnUse"><stop stop-color="#E4F0FF"/><stop offset=".35" stop-color="#E2EEFC"/><stop offset=".5" stop-color="#DBE7F5"/><stop offset=".61" stop-color="#D1DBE9"/><stop offset=".7" stop-color="#C1CBD7"/><stop offset=".78" stop-color="#ADB5C0"/><stop offset=".85" stop-color="#949AA4"/><stop offset=".92" stop-color="#767A82"/><stop offset=".98" stop-color="#55575C"/><stop offset="1" stop-color="#48494D"/></linearGradient></defs></svg>