<svg xmlns="http://www.w3.org/2000/svg" width="29" height="18" fill="none"><path fill="#fff" d="M10.945 10.945a.998.998 0 0 1 1.411 0l2.663 2.663a.998.998 0 0 1 0 1.411l-2.663 2.663a.999.999 0 1 1-1.411-1.411l1.957-1.958-1.957-1.957a.998.998 0 0 1 0-1.411Z"/><path fill="url(#a)" d="M10.945 10.945a.998.998 0 0 1 1.411 0l2.663 2.663a.998.998 0 0 1 0 1.411l-2.663 2.663a.999.999 0 1 1-1.411-1.411l1.957-1.958-1.957-1.957a.998.998 0 0 1 0-1.411Z"/><path fill="#fff" d="M4.452 2.056C7.028.768 10.515 0 14.314 0c3.8 0 7.286.768 9.863 2.056 2.515 1.257 4.451 3.18 4.451 5.6 0 1.798-1.084 3.329-2.631 4.49-1.555 1.165-3.698 2.054-6.143 2.59a1 1 0 0 1-.427-1.952c2.257-.493 4.11-1.29 5.373-2.237 1.271-.952 1.83-1.96 1.83-2.89 0-1.258-1.043-2.664-3.347-3.816-2.244-1.12-5.413-1.844-8.969-1.844-3.555 0-6.724.723-8.968 1.844C3.04 4.993 1.997 6.4 1.997 7.656c0 1.257 1.044 2.663 3.348 3.815 2.244 1.12 5.413 1.844 8.968 1.844a.998.998 0 1 1 0 1.997c-3.798 0-7.285-.768-9.86-2.056C1.935 12 0 10.076 0 7.656c0-2.42 1.936-4.343 4.452-5.6Z"/><path fill="url(#b)" d="M4.452 2.056C7.028.768 10.515 0 14.314 0c3.8 0 7.286.768 9.863 2.056 2.515 1.257 4.451 3.18 4.451 5.6 0 1.798-1.084 3.329-2.631 4.49-1.555 1.165-3.698 2.054-6.143 2.59a1 1 0 0 1-.427-1.952c2.257-.493 4.11-1.29 5.373-2.237 1.271-.952 1.83-1.96 1.83-2.89 0-1.258-1.043-2.664-3.347-3.816-2.244-1.12-5.413-1.844-8.969-1.844-3.555 0-6.724.723-8.968 1.844C3.04 4.993 1.997 6.4 1.997 7.656c0 1.257 1.044 2.663 3.348 3.815 2.244 1.12 5.413 1.844 8.968 1.844a.998.998 0 1 1 0 1.997c-3.798 0-7.285-.768-9.86-2.056C1.935 12 0 10.076 0 7.656c0-2.42 1.936-4.343 4.452-5.6Z"/><defs><linearGradient id="a" x1="10.627" x2="15.311" y1="14.327" y2="14.327" gradientUnits="userSpaceOnUse"><stop stop-color="#E4F0FF"/><stop offset=".35" stop-color="#E2EEFC"/><stop offset=".5" stop-color="#DBE7F5"/><stop offset=".61" stop-color="#D1DBE9"/><stop offset=".7" stop-color="#C1CBD7"/><stop offset=".78" stop-color="#ADB5C0"/><stop offset=".85" stop-color="#949AA4"/><stop offset=".92" stop-color="#767A82"/><stop offset=".98" stop-color="#55575C"/><stop offset="1" stop-color="#48494D"/></linearGradient><linearGradient id="b" x1="0" x2="28.627" y1="7.657" y2="7.657" gradientUnits="userSpaceOnUse"><stop stop-color="#E4F0FF"/><stop offset=".35" stop-color="#E2EEFC"/><stop offset=".5" stop-color="#DBE7F5"/><stop offset=".61" stop-color="#D1DBE9"/><stop offset=".7" stop-color="#C1CBD7"/><stop offset=".78" stop-color="#ADB5C0"/><stop offset=".85" stop-color="#949AA4"/><stop offset=".92" stop-color="#767A82"/><stop offset=".98" stop-color="#55575C"/><stop offset="1" stop-color="#48494D"/></linearGradient></defs></svg>