<svg xmlns="http://www.w3.org/2000/svg" width="38" height="38" fill="none"><circle cx="19" cy="19" r="19" fill="#8A8A8A"/><g clip-path="url(#a)"><path fill="#0D0D0D" d="M26.905 24.14a1.236 1.236 0 0 0-.061-.117c-.313-.563-.91-1.253-1.79-2.072l-.02-.018-.008-.01-.01-.009h-.01c-.4-.381-.652-.637-.758-.769-.194-.25-.238-.502-.132-.759.075-.193.357-.602.844-1.227.256-.331.459-.597.609-.797 1.08-1.437 1.55-2.355 1.406-2.755l-.056-.094c-.038-.056-.134-.107-.29-.154-.157-.047-.357-.055-.6-.024l-2.7.019a.35.35 0 0 0-.187.005l-.122.028-.047.023-.037.029a.416.416 0 0 0-.103.098.645.645 0 0 0-.094.164 15.29 15.29 0 0 1-1.003 2.108c-.23.388-.443.724-.637 1.008a4.843 4.843 0 0 1-.487.628c-.132.134-.25.242-.356.323-.107.081-.188.116-.244.103a7.443 7.443 0 0 1-.16-.037.623.623 0 0 1-.21-.23 1.028 1.028 0 0 1-.108-.365 4.025 4.025 0 0 1-.033-.38 7.896 7.896 0 0 1 .005-.45c.006-.194.01-.325.01-.393 0-.238.004-.496.013-.774.01-.278.017-.498.024-.66.006-.163.009-.335.009-.516s-.011-.323-.033-.426a1.459 1.459 0 0 0-.098-.3.505.505 0 0 0-.192-.225 1.085 1.085 0 0 0-.314-.127c-.331-.075-.753-.115-1.265-.121-1.162-.013-1.91.062-2.24.225-.131.068-.25.162-.356.28-.113.138-.129.213-.047.226.375.056.64.19.796.402l.057.113c.043.081.087.225.13.431.045.206.073.434.085.684.031.456.031.847 0 1.172-.031.325-.06.578-.089.759a1.516 1.516 0 0 1-.239.646.163.163 0 0 1-.047.047.704.704 0 0 1-.253.047c-.087 0-.194-.044-.318-.131a2.25 2.25 0 0 1-.39-.36 4.833 4.833 0 0 1-.454-.643 11.21 11.21 0 0 1-.525-.975l-.15-.271a23.52 23.52 0 0 1-.384-.764 14.693 14.693 0 0 1-.43-.97.618.618 0 0 0-.226-.3l-.047-.028a.647.647 0 0 0-.15-.08.998.998 0 0 0-.215-.06l-2.568.018c-.262 0-.44.06-.534.178l-.038.056a.303.303 0 0 0-.028.15c0 .069.019.153.056.253.375.881.783 1.73 1.223 2.55.44.818.823 1.477 1.148 1.977.325.5.656.971.994 1.415.337.443.56.728.67.853.11.125.195.218.258.28l.234.226c.15.15.37.33.66.538.291.21.613.416.966.62.353.202.764.368 1.232.496.469.128.925.18 1.369.155h1.077c.219-.02.385-.088.497-.207l.037-.047a.621.621 0 0 0 .07-.173.953.953 0 0 0 .033-.258 3.09 3.09 0 0 1 .061-.726c.047-.215.1-.378.16-.487a1.2 1.2 0 0 1 .36-.412.614.614 0 0 1 .075-.033c.15-.05.327-.002.53.145s.394.328.572.544c.178.215.392.457.642.726.25.269.468.468.656.6l.187.112c.125.075.288.144.488.207.2.062.374.078.524.046l2.4-.037c.237 0 .421-.04.552-.117.132-.078.21-.164.235-.258a.725.725 0 0 0 .005-.319 1.173 1.173 0 0 0-.066-.248Z"/></g><defs><clipPath id="a"><path fill="#fff" d="M9 11h18v18H9z"/></clipPath></defs></svg>