<svg xmlns="http://www.w3.org/2000/svg" width="38" height="38" fill="none"><circle cx="19" cy="19" r="19" fill="#8A8A8A"/><g clip-path="url(#a)"><path fill="#0D0D0D" d="M19.002 10h-.004C14.035 10 10 14.037 10 19c0 1.969.634 3.794 1.713 5.275l-1.121 3.344 3.46-1.106A8.923 8.923 0 0 0 19.001 28C23.965 28 28 23.962 28 19s-4.035-9-8.998-9Z"/><path fill="#8A8A8A" d="M24.24 22.709c-.218.613-1.08 1.122-1.767 1.27-.47.1-1.085.18-3.152-.677-2.645-1.096-4.349-3.784-4.481-3.958-.127-.174-1.069-1.423-1.069-2.715 0-1.291.656-1.92.92-2.19.217-.222.576-.323.92-.323.112 0 .212.006.302.01.264.012.397.027.572.445.217.523.745 1.814.808 1.947.065.133.129.313.039.487-.085.18-.159.26-.292.413-.133.153-.258.27-.391.434-.122.143-.259.296-.106.56.153.26.682 1.122 1.46 1.815 1.005.895 1.82 1.18 2.11 1.302.218.09.477.069.635-.1.202-.217.45-.577.703-.932.18-.254.408-.285.646-.195.243.084 1.529.72 1.793.851.265.133.44.196.503.307.063.112.063.635-.154 1.249Z"/></g><defs><clipPath id="a"><path fill="#fff" d="M10 10h18v18H10z"/></clipPath></defs></svg>